<?xml version="1.0" encoding="UTF-8"?>
<!DOCTYPE svg PUBLIC "-//W3C//DTD SVG 1.1//EN" "http://www.w3.org/Graphics/SVG/1.1/DTD/svg11.dtd">
<svg xmlns="http://www.w3.org/2000/svg" xmlns:xlink="http://www.w3.org/1999/xlink" version="1.1" width="931px" height="681px" viewBox="-0.5 -0.5 931 681" style="background-color: rgb(255, 255, 255);"><defs><clipPath id="mx-clip-320-30-30-30-0"><rect x="320" y="30" width="30" height="30"/></clipPath><clipPath id="mx-clip-356-30-144-30-0"><rect x="356" y="30" width="144" height="30"/></clipPath><clipPath id="mx-clip-356-60-144-30-0"><rect x="356" y="60" width="144" height="30"/></clipPath><clipPath id="mx-clip-356-90-144-30-0"><rect x="356" y="90" width="144" height="30"/></clipPath><clipPath id="mx-clip-356-120-144-30-0"><rect x="356" y="120" width="144" height="30"/></clipPath><clipPath id="mx-clip-320-150-30-30-0"><rect x="320" y="150" width="30" height="30"/></clipPath><clipPath id="mx-clip-356-150-144-30-0"><rect x="356" y="150" width="144" height="30"/></clipPath><clipPath id="mx-clip-10-30-30-30-0"><rect x="10" y="30" width="30" height="30"/></clipPath><clipPath id="mx-clip-46-30-144-30-0"><rect x="46" y="30" width="144" height="30"/></clipPath><clipPath id="mx-clip-46-60-144-30-0"><rect x="46" y="60" width="144" height="30"/></clipPath><clipPath id="mx-clip-46-90-144-30-0"><rect x="46" y="90" width="144" height="30"/></clipPath><clipPath id="mx-clip-46-120-144-30-0"><rect x="46" y="120" width="144" height="30"/></clipPath><clipPath id="mx-clip-46-150-144-30-0"><rect x="46" y="150" width="144" height="30"/></clipPath><clipPath id="mx-clip-46-180-144-30-0"><rect x="46" y="180" width="144" height="30"/></clipPath><clipPath id="mx-clip-46-210-144-30-0"><rect x="46" y="210" width="144" height="30"/></clipPath><clipPath id="mx-clip-46-240-144-30-0"><rect x="46" y="240" width="144" height="30"/></clipPath><clipPath id="mx-clip-46-270-144-30-0"><rect x="46" y="270" width="144" height="30"/></clipPath><clipPath id="mx-clip-46-300-144-30-0"><rect x="46" y="300" width="144" height="30"/></clipPath><clipPath id="mx-clip-46-330-144-30-0"><rect x="46" y="330" width="144" height="30"/></clipPath><clipPath id="mx-clip-0-455-30-30-0"><rect x="0" y="455" width="30" height="30"/></clipPath><clipPath id="mx-clip-36-455-144-30-0"><rect x="36" y="455" width="144" height="30"/></clipPath><clipPath id="mx-clip-36-485-144-30-0"><rect x="36" y="485" width="144" height="30"/></clipPath><clipPath id="mx-clip-0-515-30-30-0"><rect x="0" y="515" width="30" height="30"/></clipPath><clipPath id="mx-clip-36-515-144-30-0"><rect x="36" y="515" width="144" height="30"/></clipPath><clipPath id="mx-clip-260-400-30-30-0"><rect x="260" y="400" width="30" height="30"/></clipPath><clipPath id="mx-clip-296-400-144-30-0"><rect x="296" y="400" width="144" height="30"/></clipPath><clipPath id="mx-clip-296-430-144-30-0"><rect x="296" y="430" width="144" height="30"/></clipPath><clipPath id="mx-clip-296-460-144-30-0"><rect x="296" y="460" width="144" height="30"/></clipPath><clipPath id="mx-clip-296-490-144-30-0"><rect x="296" y="490" width="144" height="30"/></clipPath><clipPath id="mx-clip-260-520-30-30-0"><rect x="260" y="520" width="30" height="30"/></clipPath><clipPath id="mx-clip-296-520-144-30-0"><rect x="296" y="520" width="144" height="30"/></clipPath><clipPath id="mx-clip-260-550-30-30-0"><rect x="260" y="550" width="30" height="30"/></clipPath><clipPath id="mx-clip-296-550-144-30-0"><rect x="296" y="550" width="144" height="30"/></clipPath><clipPath id="mx-clip-510-390-30-30-0"><rect x="510" y="390" width="30" height="30"/></clipPath><clipPath id="mx-clip-546-390-144-30-0"><rect x="546" y="390" width="144" height="30"/></clipPath><clipPath id="mx-clip-546-420-144-30-0"><rect x="546" y="420" width="144" height="30"/></clipPath><clipPath id="mx-clip-546-450-144-30-0"><rect x="546" y="450" width="144" height="30"/></clipPath><clipPath id="mx-clip-750-230-30-30-0"><rect x="750" y="230" width="30" height="30"/></clipPath><clipPath id="mx-clip-786-230-144-30-0"><rect x="786" y="230" width="144" height="30"/></clipPath><clipPath id="mx-clip-786-260-144-30-0"><rect x="786" y="260" width="144" height="30"/></clipPath><clipPath id="mx-clip-750-290-30-30-0"><rect x="750" y="290" width="30" height="30"/></clipPath><clipPath id="mx-clip-786-290-144-30-0"><rect x="786" y="290" width="144" height="30"/></clipPath><clipPath id="mx-clip-750-390-30-30-0"><rect x="750" y="390" width="30" height="30"/></clipPath><clipPath id="mx-clip-786-390-144-30-0"><rect x="786" y="390" width="144" height="30"/></clipPath><clipPath id="mx-clip-786-420-144-30-0"><rect x="786" y="420" width="144" height="30"/></clipPath><clipPath id="mx-clip-750-450-30-30-0"><rect x="750" y="450" width="30" height="30"/></clipPath><clipPath id="mx-clip-786-450-144-30-0"><rect x="786" y="450" width="144" height="30"/></clipPath><clipPath id="mx-clip-750-560-30-30-0"><rect x="750" y="560" width="30" height="30"/></clipPath><clipPath id="mx-clip-786-560-144-30-0"><rect x="786" y="560" width="144" height="30"/></clipPath><clipPath id="mx-clip-786-590-144-30-0"><rect x="786" y="590" width="144" height="30"/></clipPath><clipPath id="mx-clip-750-620-30-30-0"><rect x="750" y="620" width="30" height="30"/></clipPath><clipPath id="mx-clip-786-620-144-30-0"><rect x="786" y="620" width="144" height="30"/></clipPath></defs><g><path d="M 320 30 L 320 0 L 500 0 L 500 30" fill="rgb(255, 255, 255)" stroke="rgb(0, 0, 0)" stroke-miterlimit="10" pointer-events="all"/><path d="M 320 30 L 320 190 L 500 190 L 500 30" fill="none" stroke="rgb(0, 0, 0)" stroke-miterlimit="10" pointer-events="none"/><path d="M 320 30 L 500 30" fill="none" stroke="rgb(0, 0, 0)" stroke-miterlimit="10" pointer-events="none"/><path d="M 350 30 L 350 60 L 350 90 L 350 120 L 350 150 L 350 180" fill="none" stroke="rgb(0, 0, 0)" stroke-miterlimit="10" pointer-events="none"/><g fill="rgb(0, 0, 0)" font-family="Helvetica" font-weight="bold" pointer-events="none" text-anchor="middle" font-size="12px"><text x="409.5" y="19.5">reviews</text></g><path d="M 320 30 M 500 30 M 500 60 L 320 60" fill="none" stroke="rgb(0, 0, 0)" stroke-linecap="square" stroke-miterlimit="10" pointer-events="none"/><path d="M 320 30 M 350 30 M 350 60 M 320 60" fill="none" stroke="rgb(0, 0, 0)" stroke-linecap="square" stroke-miterlimit="10" pointer-events="none"/><g fill="rgb(0, 0, 0)" font-family="Helvetica" font-weight="bold" pointer-events="none" clip-path="url(#mx-clip-320-30-30-30-0)" text-anchor="middle" font-size="12px"><text x="334.5" y="49.5">PK</text></g><path d="M 350 30 M 500 30 M 500 60 M 350 60" fill="none" stroke="rgb(0, 0, 0)" stroke-linecap="square" stroke-miterlimit="10" pointer-events="none"/><g fill="rgb(0, 0, 0)" font-family="Helvetica" font-weight="bold" text-decoration="underline" pointer-events="none" clip-path="url(#mx-clip-356-30-144-30-0)" font-size="12px"><text x="357.5" y="49.5">review_id</text></g><path d="M 320 60 M 350 60 M 350 90 M 320 90" fill="none" stroke="rgb(0, 0, 0)" stroke-linecap="square" stroke-miterlimit="10" pointer-events="none"/><path d="M 350 60 M 500 60 M 500 90 M 350 90" fill="none" stroke="rgb(0, 0, 0)" stroke-linecap="square" stroke-miterlimit="10" pointer-events="none"/><g fill="rgb(0, 0, 0)" font-family="Helvetica" pointer-events="none" clip-path="url(#mx-clip-356-60-144-30-0)" font-size="12px"><text x="357.5" y="79.5">username</text></g><path d="M 320 90 M 350 90 M 350 120 M 320 120" fill="none" stroke="rgb(0, 0, 0)" stroke-linecap="square" stroke-miterlimit="10" pointer-events="none"/><path d="M 350 90 M 500 90 M 500 120 M 350 120" fill="none" stroke="rgb(0, 0, 0)" stroke-linecap="square" stroke-miterlimit="10" pointer-events="none"/><g fill="rgb(0, 0, 0)" font-family="Helvetica" pointer-events="none" clip-path="url(#mx-clip-356-90-144-30-0)" font-size="12px"><text x="357.5" y="109.5">raiting</text></g><path d="M 320 120 M 350 120 M 350 150 M 320 150" fill="none" stroke="rgb(0, 0, 0)" stroke-linecap="square" stroke-miterlimit="10" pointer-events="none"/><path d="M 350 120 M 500 120 M 500 150 M 350 150" fill="none" stroke="rgb(0, 0, 0)" stroke-linecap="square" stroke-miterlimit="10" pointer-events="none"/><g fill="rgb(0, 0, 0)" font-family="Helvetica" pointer-events="none" clip-path="url(#mx-clip-356-120-144-30-0)" font-size="12px"><text x="357.5" y="139.5">content</text></g><path d="M 320 150 M 350 150 M 350 180 M 320 180" fill="none" stroke="rgb(0, 0, 0)" stroke-linecap="square" stroke-miterlimit="10" pointer-events="none"/><g fill="rgb(0, 0, 0)" font-family="Helvetica" font-weight="bold" pointer-events="none" clip-path="url(#mx-clip-320-150-30-30-0)" text-anchor="middle" font-size="12px"><text x="334.5" y="169.5">FK</text></g><path d="M 350 150 M 500 150 M 500 180 M 350 180" fill="none" stroke="rgb(0, 0, 0)" stroke-linecap="square" stroke-miterlimit="10" pointer-events="none"/><g fill="rgb(0, 0, 0)" font-family="Helvetica" pointer-events="none" clip-path="url(#mx-clip-356-150-144-30-0)" font-size="12px"><text x="357.5" y="169.5">fk_coffee</text></g><path d="M 10 30 L 10 0 L 190 0 L 190 30" fill="rgb(255, 255, 255)" stroke="rgb(0, 0, 0)" stroke-miterlimit="10" pointer-events="none"/><path d="M 10 30 L 10 370 L 190 370 L 190 30" fill="none" stroke="rgb(0, 0, 0)" stroke-miterlimit="10" pointer-events="none"/><path d="M 10 30 L 190 30" fill="none" stroke="rgb(0, 0, 0)" stroke-miterlimit="10" pointer-events="none"/><path d="M 40 30 L 40 60 L 40 90 L 40 120 L 40 150 L 40 180 L 40 210 L 40 240 L 40 270 L 40 300 L 40 330 L 40 360" fill="none" stroke="rgb(0, 0, 0)" stroke-miterlimit="10" pointer-events="none"/><g fill="rgb(0, 0, 0)" font-family="Helvetica" font-weight="bold" pointer-events="none" text-anchor="middle" font-size="12px"><text x="99.5" y="19.5">coffee</text></g><path d="M 10 30 M 190 30 M 190 60 L 10 60" fill="none" stroke="rgb(0, 0, 0)" stroke-linecap="square" stroke-miterlimit="10" pointer-events="none"/><path d="M 10 30 M 40 30 M 40 60 M 10 60" fill="none" stroke="rgb(0, 0, 0)" stroke-linecap="square" stroke-miterlimit="10" pointer-events="none"/><g fill="rgb(0, 0, 0)" font-family="Helvetica" font-weight="bold" pointer-events="none" clip-path="url(#mx-clip-10-30-30-30-0)" text-anchor="middle" font-size="12px"><text x="24.5" y="49.5">PK</text></g><path d="M 40 30 M 190 30 M 190 60 M 40 60" fill="none" stroke="rgb(0, 0, 0)" stroke-linecap="square" stroke-miterlimit="10" pointer-events="none"/><g fill="rgb(0, 0, 0)" font-family="Helvetica" font-weight="bold" text-decoration="underline" pointer-events="none" clip-path="url(#mx-clip-46-30-144-30-0)" font-size="12px"><text x="47.5" y="49.5">coffee_id</text></g><path d="M 10 60 M 40 60 M 40 90 M 10 90" fill="none" stroke="rgb(0, 0, 0)" stroke-linecap="square" stroke-miterlimit="10" pointer-events="none"/><path d="M 40 60 M 190 60 M 190 90 M 40 90" fill="none" stroke="rgb(0, 0, 0)" stroke-linecap="square" stroke-miterlimit="10" pointer-events="none"/><g fill="rgb(0, 0, 0)" font-family="Helvetica" pointer-events="none" clip-path="url(#mx-clip-46-60-144-30-0)" font-size="12px"><text x="47.5" y="79.5">country</text></g><path d="M 10 90 M 40 90 M 40 120 M 10 120" fill="none" stroke="rgb(0, 0, 0)" stroke-linecap="square" stroke-miterlimit="10" pointer-events="none"/><path d="M 40 90 M 190 90 M 190 120 M 40 120" fill="none" stroke="rgb(0, 0, 0)" stroke-linecap="square" stroke-miterlimit="10" pointer-events="none"/><g fill="rgb(0, 0, 0)" font-family="Helvetica" pointer-events="none" clip-path="url(#mx-clip-46-90-144-30-0)" font-size="12px"><text x="47.5" y="109.5">acidity</text></g><path d="M 10 120 M 40 120 M 40 150 M 10 150" fill="none" stroke="rgb(0, 0, 0)" stroke-linecap="square" stroke-miterlimit="10" pointer-events="none"/><path d="M 40 120 M 190 120 M 190 150 M 40 150" fill="none" stroke="rgb(0, 0, 0)" stroke-linecap="square" stroke-miterlimit="10" pointer-events="none"/><g fill="rgb(0, 0, 0)" font-family="Helvetica" pointer-events="none" clip-path="url(#mx-clip-46-120-144-30-0)" font-size="12px"><text x="47.5" y="139.5">density</text></g><path d="M 10 150 M 40 150 M 40 180 M 10 180" fill="none" stroke="rgb(0, 0, 0)" stroke-linecap="square" stroke-miterlimit="10" pointer-events="none"/><path d="M 40 150 M 190 150 M 190 180 M 40 180" fill="none" stroke="rgb(0, 0, 0)" stroke-linecap="square" stroke-miterlimit="10" pointer-events="none"/><g fill="rgb(0, 0, 0)" font-family="Helvetica" pointer-events="none" clip-path="url(#mx-clip-46-150-144-30-0)" font-size="12px"><text x="47.5" y="169.5">type (turk, esspresso)</text></g><path d="M 10 180 M 40 180 M 40 210 M 10 210" fill="none" stroke="rgb(0, 0, 0)" stroke-linecap="square" stroke-miterlimit="10" pointer-events="none"/><path d="M 40 180 M 190 180 M 190 210 M 40 210" fill="none" stroke="rgb(0, 0, 0)" stroke-linecap="square" stroke-miterlimit="10" pointer-events="none"/><g fill="rgb(0, 0, 0)" font-family="Helvetica" pointer-events="none" clip-path="url(#mx-clip-46-180-144-30-0)" font-size="12px"><text x="47.5" y="199.5">treatment</text></g><path d="M 10 210 M 40 210 M 40 240 M 10 240" fill="none" stroke="rgb(0, 0, 0)" stroke-linecap="square" stroke-miterlimit="10" pointer-events="none"/><path d="M 40 210 M 190 210 M 190 240 M 40 240" fill="none" stroke="rgb(0, 0, 0)" stroke-linecap="square" stroke-miterlimit="10" pointer-events="none"/><g fill="rgb(0, 0, 0)" font-family="Helvetica" pointer-events="none" clip-path="url(#mx-clip-46-210-144-30-0)" font-size="12px"><text x="47.5" y="229.5">content</text></g><path d="M 10 240 M 40 240 M 40 270 M 10 270" fill="none" stroke="rgb(0, 0, 0)" stroke-linecap="square" stroke-miterlimit="10" pointer-events="none"/><path d="M 40 240 M 190 240 M 190 270 M 40 270" fill="none" stroke="rgb(0, 0, 0)" stroke-linecap="square" stroke-miterlimit="10" pointer-events="none"/><g fill="rgb(0, 0, 0)" font-family="Helvetica" pointer-events="none" clip-path="url(#mx-clip-46-240-144-30-0)" font-size="12px"><text x="47.5" y="259.5">size</text></g><path d="M 10 270 M 40 270 M 40 300 M 10 300" fill="none" stroke="rgb(0, 0, 0)" stroke-linecap="square" stroke-miterlimit="10" pointer-events="none"/><path d="M 40 270 M 190 270 M 190 300 M 40 300" fill="none" stroke="rgb(0, 0, 0)" stroke-linecap="square" stroke-miterlimit="10" pointer-events="none"/><g fill="rgb(0, 0, 0)" font-family="Helvetica" pointer-events="none" clip-path="url(#mx-clip-46-270-144-30-0)" font-size="12px"><text x="47.5" y="289.5">price</text></g><path d="M 10 300 M 40 300 M 40 330 M 10 330" fill="none" stroke="rgb(0, 0, 0)" stroke-linecap="square" stroke-miterlimit="10" pointer-events="none"/><path d="M 40 300 M 190 300 M 190 330 M 40 330" fill="none" stroke="rgb(0, 0, 0)" stroke-linecap="square" stroke-miterlimit="10" pointer-events="none"/><g fill="rgb(0, 0, 0)" font-family="Helvetica" pointer-events="none" clip-path="url(#mx-clip-46-300-144-30-0)" font-size="12px"><text x="47.5" y="319.5">amount</text></g><path d="M 10 330 M 40 330 M 40 360 M 10 360" fill="none" stroke="rgb(0, 0, 0)" stroke-linecap="square" stroke-miterlimit="10" pointer-events="none"/><path d="M 40 330 M 190 330 M 190 360 M 40 360" fill="none" stroke="rgb(0, 0, 0)" stroke-linecap="square" stroke-miterlimit="10" pointer-events="none"/><g fill="rgb(0, 0, 0)" font-family="Helvetica" pointer-events="none" clip-path="url(#mx-clip-46-330-144-30-0)" font-size="12px"><text x="47.5" y="349.5">image_coffee</text></g><path d="M 0 455 L 0 425 L 180 425 L 180 455" fill="rgb(255, 255, 255)" stroke="rgb(0, 0, 0)" stroke-miterlimit="10" pointer-events="none"/><path d="M 0 455 L 0 575 L 180 575 L 180 455" fill="none" stroke="rgb(0, 0, 0)" stroke-miterlimit="10" pointer-events="none"/><path d="M 0 455 L 180 455" fill="none" stroke="rgb(0, 0, 0)" stroke-miterlimit="10" pointer-events="none"/><path d="M 30 455 L 30 485 L 30 515 L 30 545 L 30 575" fill="none" stroke="rgb(0, 0, 0)" stroke-miterlimit="10" pointer-events="none"/><g fill="rgb(0, 0, 0)" font-family="Helvetica" font-weight="bold" pointer-events="none" text-anchor="middle" font-size="12px"><text x="89.5" y="444.5">coffee_order_detail</text></g><path d="M 0 455 M 180 455 M 180 485 L 0 485" fill="none" stroke="rgb(0, 0, 0)" stroke-linecap="square" stroke-miterlimit="10" pointer-events="none"/><path d="M 0 455 M 30 455 M 30 485 M 0 485" fill="none" stroke="rgb(0, 0, 0)" stroke-linecap="square" stroke-miterlimit="10" pointer-events="none"/><g fill="rgb(0, 0, 0)" font-family="Helvetica" font-weight="bold" pointer-events="none" clip-path="url(#mx-clip-0-455-30-30-0)" text-anchor="middle" font-size="12px"><text x="14.5" y="474.5">PK</text></g><path d="M 30 455 M 180 455 M 180 485 M 30 485" fill="none" stroke="rgb(0, 0, 0)" stroke-linecap="square" stroke-miterlimit="10" pointer-events="none"/><g fill="rgb(0, 0, 0)" font-family="Helvetica" font-weight="bold" text-decoration="underline" pointer-events="none" clip-path="url(#mx-clip-36-455-144-30-0)" font-size="12px"><text x="37.5" y="474.5">coffee_order_detail_id</text></g><path d="M 0 485 M 30 485 M 30 515 M 0 515" fill="none" stroke="rgb(0, 0, 0)" stroke-linecap="square" stroke-miterlimit="10" pointer-events="none"/><path d="M 30 485 M 180 485 M 180 515 M 30 515" fill="none" stroke="rgb(0, 0, 0)" stroke-linecap="square" stroke-miterlimit="10" pointer-events="none"/><g fill="rgb(0, 0, 0)" font-family="Helvetica" pointer-events="none" clip-path="url(#mx-clip-36-485-144-30-0)" font-size="12px"><text x="37.5" y="504.5">amount</text></g><path d="M 0 515 M 30 515 M 30 545 M 0 545" fill="none" stroke="rgb(0, 0, 0)" stroke-linecap="square" stroke-miterlimit="10" pointer-events="none"/><g fill="rgb(0, 0, 0)" font-family="Helvetica" font-weight="bold" pointer-events="none" clip-path="url(#mx-clip-0-515-30-30-0)" text-anchor="middle" font-size="12px"><text x="14.5" y="534.5">FK</text></g><path d="M 30 515 M 180 515 M 180 545 M 30 545" fill="none" stroke="rgb(0, 0, 0)" stroke-linecap="square" stroke-miterlimit="10" pointer-events="none"/><g fill="rgb(0, 0, 0)" font-family="Helvetica" pointer-events="none" clip-path="url(#mx-clip-36-515-144-30-0)" font-size="12px"><text x="37.5" y="534.5">fk_coffee</text></g><path d="M 0 545 M 30 545 M 30 575 M 0 575" fill="none" stroke="rgb(0, 0, 0)" stroke-linecap="square" stroke-miterlimit="10" pointer-events="none"/><path d="M 30 545 M 180 545 M 180 575 M 30 575" fill="none" stroke="rgb(0, 0, 0)" stroke-linecap="square" stroke-miterlimit="10" pointer-events="none"/><path d="M 260 400 L 260 370 L 440 370 L 440 400" fill="rgb(255, 255, 255)" stroke="rgb(0, 0, 0)" stroke-miterlimit="10" pointer-events="none"/><path d="M 260 400 L 260 590 L 440 590 L 440 400" fill="none" stroke="rgb(0, 0, 0)" stroke-miterlimit="10" pointer-events="none"/><path d="M 260 400 L 440 400" fill="none" stroke="rgb(0, 0, 0)" stroke-miterlimit="10" pointer-events="none"/><path d="M 290 400 L 290 430 L 290 460 L 290 490 L 290 520 L 290 550 L 290 580" fill="none" stroke="rgb(0, 0, 0)" stroke-miterlimit="10" pointer-events="none"/><g fill="rgb(0, 0, 0)" font-family="Helvetica" font-weight="bold" pointer-events="none" text-anchor="middle" font-size="12px"><text x="349.5" y="389.5">coffee_order</text></g><path d="M 260 400 M 440 400 M 440 430 L 260 430" fill="none" stroke="rgb(0, 0, 0)" stroke-linecap="square" stroke-miterlimit="10" pointer-events="none"/><path d="M 260 400 M 290 400 M 290 430 M 260 430" fill="none" stroke="rgb(0, 0, 0)" stroke-linecap="square" stroke-miterlimit="10" pointer-events="none"/><g fill="rgb(0, 0, 0)" font-family="Helvetica" font-weight="bold" pointer-events="none" clip-path="url(#mx-clip-260-400-30-30-0)" text-anchor="middle" font-size="12px"><text x="274.5" y="419.5">PK</text></g><path d="M 290 400 M 440 400 M 440 430 M 290 430" fill="none" stroke="rgb(0, 0, 0)" stroke-linecap="square" stroke-miterlimit="10" pointer-events="none"/><g fill="rgb(0, 0, 0)" font-family="Helvetica" font-weight="bold" text-decoration="underline" pointer-events="none" clip-path="url(#mx-clip-296-400-144-30-0)" font-size="12px"><text x="297.5" y="419.5">coffee_order_id</text></g><path d="M 260 430 M 290 430 M 290 460 M 260 460" fill="none" stroke="rgb(0, 0, 0)" stroke-linecap="square" stroke-miterlimit="10" pointer-events="none"/><path d="M 290 430 M 440 430 M 440 460 M 290 460" fill="none" stroke="rgb(0, 0, 0)" stroke-linecap="square" stroke-miterlimit="10" pointer-events="none"/><g fill="rgb(0, 0, 0)" font-family="Helvetica" pointer-events="none" clip-path="url(#mx-clip-296-430-144-30-0)" font-size="12px"><text x="297.5" y="449.5">total_price</text></g><path d="M 260 460 M 290 460 M 290 490 M 260 490" fill="none" stroke="rgb(0, 0, 0)" stroke-linecap="square" stroke-miterlimit="10" pointer-events="none"/><path d="M 290 460 M 440 460 M 440 490 M 290 490" fill="none" stroke="rgb(0, 0, 0)" stroke-linecap="square" stroke-miterlimit="10" pointer-events="none"/><g fill="rgb(0, 0, 0)" font-family="Helvetica" pointer-events="none" clip-path="url(#mx-clip-296-460-144-30-0)" font-size="12px"><text x="297.5" y="479.5">date_add</text></g><path d="M 260 490 M 290 490 M 290 520 M 260 520" fill="none" stroke="rgb(0, 0, 0)" stroke-linecap="square" stroke-miterlimit="10" pointer-events="none"/><path d="M 290 490 M 440 490 M 440 520 M 290 520" fill="none" stroke="rgb(0, 0, 0)" stroke-linecap="square" stroke-miterlimit="10" pointer-events="none"/><g fill="rgb(0, 0, 0)" font-family="Helvetica" pointer-events="none" clip-path="url(#mx-clip-296-490-144-30-0)" font-size="12px"><text x="297.5" y="509.5">date_update</text></g><path d="M 260 520 M 290 520 M 290 550 M 260 550" fill="none" stroke="rgb(0, 0, 0)" stroke-linecap="square" stroke-miterlimit="10" pointer-events="none"/><g fill="rgb(0, 0, 0)" font-family="Helvetica" font-weight="bold" pointer-events="none" clip-path="url(#mx-clip-260-520-30-30-0)" text-anchor="middle" font-size="12px"><text x="274.5" y="539.5">FK</text></g><path d="M 290 520 M 440 520 M 440 550 M 290 550" fill="none" stroke="rgb(0, 0, 0)" stroke-linecap="square" stroke-miterlimit="10" pointer-events="none"/><g fill="rgb(0, 0, 0)" font-family="Helvetica" pointer-events="none" clip-path="url(#mx-clip-296-520-144-30-0)" font-size="12px"><text x="297.5" y="539.5">fk_coffee_order_detail</text></g><path d="M 260 550 M 290 550 M 290 580 M 260 580" fill="none" stroke="rgb(0, 0, 0)" stroke-linecap="square" stroke-miterlimit="10" pointer-events="none"/><g fill="rgb(0, 0, 0)" font-family="Helvetica" font-weight="bold" pointer-events="none" clip-path="url(#mx-clip-260-550-30-30-0)" text-anchor="middle" font-size="12px"><text x="274.5" y="569.5">FK</text></g><path d="M 290 550 M 440 550 M 440 580 M 290 580" fill="none" stroke="rgb(0, 0, 0)" stroke-linecap="square" stroke-miterlimit="10" pointer-events="none"/><g fill="rgb(0, 0, 0)" font-family="Helvetica" pointer-events="none" clip-path="url(#mx-clip-296-550-144-30-0)" font-size="12px"><text x="297.5" y="569.5">fk_customer</text></g><path d="M 510 390 L 510 360 L 690 360 L 690 390" fill="rgb(255, 255, 255)" stroke="rgb(0, 0, 0)" stroke-miterlimit="10" pointer-events="none"/><path d="M 510 390 L 510 520 L 690 520 L 690 390" fill="none" stroke="rgb(0, 0, 0)" stroke-miterlimit="10" pointer-events="none"/><path d="M 510 390 L 690 390" fill="none" stroke="rgb(0, 0, 0)" stroke-miterlimit="10" pointer-events="none"/><path d="M 540 390 L 540 420 L 540 450 L 540 480 L 540 510" fill="none" stroke="rgb(0, 0, 0)" stroke-miterlimit="10" pointer-events="none"/><g fill="rgb(0, 0, 0)" font-family="Helvetica" font-weight="bold" pointer-events="none" text-anchor="middle" font-size="12px"><text x="599.5" y="379.5">customer</text></g><path d="M 510 390 M 690 390 M 690 420 L 510 420" fill="none" stroke="rgb(0, 0, 0)" stroke-linecap="square" stroke-miterlimit="10" pointer-events="none"/><path d="M 510 390 M 540 390 M 540 420 M 510 420" fill="none" stroke="rgb(0, 0, 0)" stroke-linecap="square" stroke-miterlimit="10" pointer-events="none"/><g fill="rgb(0, 0, 0)" font-family="Helvetica" font-weight="bold" pointer-events="none" clip-path="url(#mx-clip-510-390-30-30-0)" text-anchor="middle" font-size="12px"><text x="524.5" y="409.5">PK</text></g><path d="M 540 390 M 690 390 M 690 420 M 540 420" fill="none" stroke="rgb(0, 0, 0)" stroke-linecap="square" stroke-miterlimit="10" pointer-events="none"/><g fill="rgb(0, 0, 0)" font-family="Helvetica" font-weight="bold" text-decoration="underline" pointer-events="none" clip-path="url(#mx-clip-546-390-144-30-0)" font-size="12px"><text x="547.5" y="409.5">customer_id</text></g><path d="M 510 420 M 540 420 M 540 450 M 510 450" fill="none" stroke="rgb(0, 0, 0)" stroke-linecap="square" stroke-miterlimit="10" pointer-events="none"/><path d="M 540 420 M 690 420 M 690 450 M 540 450" fill="none" stroke="rgb(0, 0, 0)" stroke-linecap="square" stroke-miterlimit="10" pointer-events="none"/><g fill="rgb(0, 0, 0)" font-family="Helvetica" pointer-events="none" clip-path="url(#mx-clip-546-420-144-30-0)" font-size="12px"><text x="547.5" y="439.5">first_name</text></g><path d="M 510 450 M 540 450 M 540 480 M 510 480" fill="none" stroke="rgb(0, 0, 0)" stroke-linecap="square" stroke-miterlimit="10" pointer-events="none"/><path d="M 540 450 M 690 450 M 690 480 M 540 480" fill="none" stroke="rgb(0, 0, 0)" stroke-linecap="square" stroke-miterlimit="10" pointer-events="none"/><g fill="rgb(0, 0, 0)" font-family="Helvetica" pointer-events="none" clip-path="url(#mx-clip-546-450-144-30-0)" font-size="12px"><text x="547.5" y="469.5">second_name</text></g><path d="M 510 480 M 540 480 M 540 510 M 510 510" fill="none" stroke="rgb(0, 0, 0)" stroke-linecap="square" stroke-miterlimit="10" pointer-events="none"/><path d="M 540 480 M 690 480 M 690 510 M 540 510" fill="none" stroke="rgb(0, 0, 0)" stroke-linecap="square" stroke-miterlimit="10" pointer-events="none"/><path d="M 750 230 L 750 200 L 930 200 L 930 230" fill="rgb(255, 255, 255)" stroke="rgb(0, 0, 0)" stroke-miterlimit="10" pointer-events="none"/><path d="M 750 230 L 750 350 L 930 350 L 930 230" fill="none" stroke="rgb(0, 0, 0)" stroke-miterlimit="10" pointer-events="none"/><path d="M 750 230 L 930 230" fill="none" stroke="rgb(0, 0, 0)" stroke-miterlimit="10" pointer-events="none"/><path d="M 780 230 L 780 260 L 780 290 L 780 320 L 780 340" fill="none" stroke="rgb(0, 0, 0)" stroke-miterlimit="10" pointer-events="none"/><g fill="rgb(0, 0, 0)" font-family="Helvetica" font-weight="bold" pointer-events="none" text-anchor="middle" font-size="12px"><text x="839.5" y="219.5">email</text></g><path d="M 750 230 M 930 230 M 930 260 L 750 260" fill="none" stroke="rgb(0, 0, 0)" stroke-linecap="square" stroke-miterlimit="10" pointer-events="none"/><path d="M 750 230 M 780 230 M 780 260 M 750 260" fill="none" stroke="rgb(0, 0, 0)" stroke-linecap="square" stroke-miterlimit="10" pointer-events="none"/><g fill="rgb(0, 0, 0)" font-family="Helvetica" font-weight="bold" pointer-events="none" clip-path="url(#mx-clip-750-230-30-30-0)" text-anchor="middle" font-size="12px"><text x="764.5" y="249.5">PK</text></g><path d="M 780 230 M 930 230 M 930 260 M 780 260" fill="none" stroke="rgb(0, 0, 0)" stroke-linecap="square" stroke-miterlimit="10" pointer-events="none"/><g fill="rgb(0, 0, 0)" font-family="Helvetica" font-weight="bold" text-decoration="underline" pointer-events="none" clip-path="url(#mx-clip-786-230-144-30-0)" font-size="12px"><text x="787.5" y="249.5">email_id</text></g><path d="M 750 260 M 780 260 M 780 290 M 750 290" fill="none" stroke="rgb(0, 0, 0)" stroke-linecap="square" stroke-miterlimit="10" pointer-events="none"/><path d="M 780 260 M 930 260 M 930 290 M 780 290" fill="none" stroke="rgb(0, 0, 0)" stroke-linecap="square" stroke-miterlimit="10" pointer-events="none"/><g fill="rgb(0, 0, 0)" font-family="Helvetica" pointer-events="none" clip-path="url(#mx-clip-786-260-144-30-0)" font-size="12px"><text x="787.5" y="279.5">email</text></g><path d="M 750 290 M 780 290 M 780 320 M 750 320" fill="none" stroke="rgb(0, 0, 0)" stroke-linecap="square" stroke-miterlimit="10" pointer-events="none"/><g fill="rgb(0, 0, 0)" font-family="Helvetica" font-weight="bold" pointer-events="none" clip-path="url(#mx-clip-750-290-30-30-0)" text-anchor="middle" font-size="12px"><text x="764.5" y="309.5">FK</text></g><path d="M 780 290 M 930 290 M 930 320 M 780 320" fill="none" stroke="rgb(0, 0, 0)" stroke-linecap="square" stroke-miterlimit="10" pointer-events="none"/><g fill="rgb(0, 0, 0)" font-family="Helvetica" pointer-events="none" clip-path="url(#mx-clip-786-290-144-30-0)" font-size="12px"><text x="787.5" y="309.5">fk_customer</text></g><path d="M 750 320 M 780 320 M 780 340 M 750 340" fill="none" stroke="rgb(0, 0, 0)" stroke-linecap="square" stroke-miterlimit="10" pointer-events="none"/><path d="M 780 320 M 930 320 M 930 340 M 780 340" fill="none" stroke="rgb(0, 0, 0)" stroke-linecap="square" stroke-miterlimit="10" pointer-events="none"/><path d="M 750 390 L 750 360 L 930 360 L 930 390" fill="rgb(255, 255, 255)" stroke="rgb(0, 0, 0)" stroke-miterlimit="10" pointer-events="none"/><path d="M 750 390 L 750 510 L 930 510 L 930 390" fill="none" stroke="rgb(0, 0, 0)" stroke-miterlimit="10" pointer-events="none"/><path d="M 750 390 L 930 390" fill="none" stroke="rgb(0, 0, 0)" stroke-miterlimit="10" pointer-events="none"/><path d="M 780 390 L 780 420 L 780 450 L 780 480 L 780 500" fill="none" stroke="rgb(0, 0, 0)" stroke-miterlimit="10" pointer-events="none"/><g fill="rgb(0, 0, 0)" font-family="Helvetica" font-weight="bold" pointer-events="none" text-anchor="middle" font-size="12px"><text x="839.5" y="379.5">phone</text></g><path d="M 750 390 M 930 390 M 930 420 L 750 420" fill="none" stroke="rgb(0, 0, 0)" stroke-linecap="square" stroke-miterlimit="10" pointer-events="none"/><path d="M 750 390 M 780 390 M 780 420 M 750 420" fill="none" stroke="rgb(0, 0, 0)" stroke-linecap="square" stroke-miterlimit="10" pointer-events="none"/><g fill="rgb(0, 0, 0)" font-family="Helvetica" font-weight="bold" pointer-events="none" clip-path="url(#mx-clip-750-390-30-30-0)" text-anchor="middle" font-size="12px"><text x="764.5" y="409.5">PK</text></g><path d="M 780 390 M 930 390 M 930 420 M 780 420" fill="none" stroke="rgb(0, 0, 0)" stroke-linecap="square" stroke-miterlimit="10" pointer-events="none"/><g fill="rgb(0, 0, 0)" font-family="Helvetica" font-weight="bold" text-decoration="underline" pointer-events="none" clip-path="url(#mx-clip-786-390-144-30-0)" font-size="12px"><text x="787.5" y="409.5">phone_id</text></g><path d="M 750 420 M 780 420 M 780 450 M 750 450" fill="none" stroke="rgb(0, 0, 0)" stroke-linecap="square" stroke-miterlimit="10" pointer-events="none"/><path d="M 780 420 M 930 420 M 930 450 M 780 450" fill="none" stroke="rgb(0, 0, 0)" stroke-linecap="square" stroke-miterlimit="10" pointer-events="none"/><g fill="rgb(0, 0, 0)" font-family="Helvetica" pointer-events="none" clip-path="url(#mx-clip-786-420-144-30-0)" font-size="12px"><text x="787.5" y="439.5">phone</text></g><path d="M 750 450 M 780 450 M 780 480 M 750 480" fill="none" stroke="rgb(0, 0, 0)" stroke-linecap="square" stroke-miterlimit="10" pointer-events="none"/><g fill="rgb(0, 0, 0)" font-family="Helvetica" font-weight="bold" pointer-events="none" clip-path="url(#mx-clip-750-450-30-30-0)" text-anchor="middle" font-size="12px"><text x="764.5" y="469.5">FK</text></g><path d="M 780 450 M 930 450 M 930 480 M 780 480" fill="none" stroke="rgb(0, 0, 0)" stroke-linecap="square" stroke-miterlimit="10" pointer-events="none"/><g fill="rgb(0, 0, 0)" font-family="Helvetica" pointer-events="none" clip-path="url(#mx-clip-786-450-144-30-0)" font-size="12px"><text x="787.5" y="469.5">fk_customer</text></g><path d="M 750 480 M 780 480 M 780 500 M 750 500" fill="none" stroke="rgb(0, 0, 0)" stroke-linecap="square" stroke-miterlimit="10" pointer-events="none"/><path d="M 780 480 M 930 480 M 930 500 M 780 500" fill="none" stroke="rgb(0, 0, 0)" stroke-linecap="square" stroke-miterlimit="10" pointer-events="none"/><path d="M 750 560 L 750 530 L 930 530 L 930 560" fill="rgb(255, 255, 255)" stroke="rgb(0, 0, 0)" stroke-miterlimit="10" pointer-events="none"/><path d="M 750 560 L 750 680 L 930 680 L 930 560" fill="none" stroke="rgb(0, 0, 0)" stroke-miterlimit="10" pointer-events="none"/><path d="M 750 560 L 930 560" fill="none" stroke="rgb(0, 0, 0)" stroke-miterlimit="10" pointer-events="none"/><path d="M 780 560 L 780 590 L 780 620 L 780 650 L 780 670" fill="none" stroke="rgb(0, 0, 0)" stroke-miterlimit="10" pointer-events="none"/><g fill="rgb(0, 0, 0)" font-family="Helvetica" font-weight="bold" pointer-events="none" text-anchor="middle" font-size="12px"><text x="839.5" y="549.5">address</text></g><path d="M 750 560 M 930 560 M 930 590 L 750 590" fill="none" stroke="rgb(0, 0, 0)" stroke-linecap="square" stroke-miterlimit="10" pointer-events="none"/><path d="M 750 560 M 780 560 M 780 590 M 750 590" fill="none" stroke="rgb(0, 0, 0)" stroke-linecap="square" stroke-miterlimit="10" pointer-events="none"/><g fill="rgb(0, 0, 0)" font-family="Helvetica" font-weight="bold" pointer-events="none" clip-path="url(#mx-clip-750-560-30-30-0)" text-anchor="middle" font-size="12px"><text x="764.5" y="579.5">PK</text></g><path d="M 780 560 M 930 560 M 930 590 M 780 590" fill="none" stroke="rgb(0, 0, 0)" stroke-linecap="square" stroke-miterlimit="10" pointer-events="none"/><g fill="rgb(0, 0, 0)" font-family="Helvetica" font-weight="bold" text-decoration="underline" pointer-events="none" clip-path="url(#mx-clip-786-560-144-30-0)" font-size="12px"><text x="787.5" y="579.5">address_id</text></g><path d="M 750 590 M 780 590 M 780 620 M 750 620" fill="none" stroke="rgb(0, 0, 0)" stroke-linecap="square" stroke-miterlimit="10" pointer-events="none"/><path d="M 780 590 M 930 590 M 930 620 M 780 620" fill="none" stroke="rgb(0, 0, 0)" stroke-linecap="square" stroke-miterlimit="10" pointer-events="none"/><g fill="rgb(0, 0, 0)" font-family="Helvetica" pointer-events="none" clip-path="url(#mx-clip-786-590-144-30-0)" font-size="12px"><text x="787.5" y="609.5">address</text></g><path d="M 750 620 M 780 620 M 780 650 M 750 650" fill="none" stroke="rgb(0, 0, 0)" stroke-linecap="square" stroke-miterlimit="10" pointer-events="none"/><g fill="rgb(0, 0, 0)" font-family="Helvetica" font-weight="bold" pointer-events="none" clip-path="url(#mx-clip-750-620-30-30-0)" text-anchor="middle" font-size="12px"><text x="764.5" y="639.5">FK</text></g><path d="M 780 620 M 930 620 M 930 650 M 780 650" fill="none" stroke="rgb(0, 0, 0)" stroke-linecap="square" stroke-miterlimit="10" pointer-events="none"/><g fill="rgb(0, 0, 0)" font-family="Helvetica" pointer-events="none" clip-path="url(#mx-clip-786-620-144-30-0)" font-size="12px"><text x="787.5" y="639.5">fk_customer</text></g><path d="M 750 650 M 780 650 M 780 670 M 750 670" fill="none" stroke="rgb(0, 0, 0)" stroke-linecap="square" stroke-miterlimit="10" pointer-events="none"/><path d="M 780 650 M 930 650 M 930 670 M 780 670" fill="none" stroke="rgb(0, 0, 0)" stroke-linecap="square" stroke-miterlimit="10" pointer-events="none"/><path d="M 690 405 L 720 405 L 720 355 L 720 305 L 750 305" fill="none" stroke="rgb(0, 0, 0)" stroke-miterlimit="10" pointer-events="none"/><path d="M 694 401 L 694 409 M 698 401 L 698 409" fill="none" stroke="rgb(0, 0, 0)" stroke-miterlimit="10" pointer-events="none"/><ellipse cx="738" cy="305" rx="3" ry="3" fill="#ffffff" stroke="rgb(0, 0, 0)" pointer-events="none"/><path d="M 750 301 L 742 305 L 750 309" fill="none" stroke="rgb(0, 0, 0)" stroke-miterlimit="10" pointer-events="none"/><path d="M 690 405 L 720 405 L 720 435 L 720 465 L 750 465" fill="none" stroke="rgb(0, 0, 0)" stroke-miterlimit="10" pointer-events="none"/><path d="M 694 401 L 694 409 M 698 401 L 698 409" fill="none" stroke="rgb(0, 0, 0)" stroke-miterlimit="10" pointer-events="none"/><ellipse cx="738" cy="465" rx="3" ry="3" fill="#ffffff" stroke="rgb(0, 0, 0)" pointer-events="none"/><path d="M 750 461 L 742 465 L 750 469" fill="none" stroke="rgb(0, 0, 0)" stroke-miterlimit="10" pointer-events="none"/><path d="M 690 405 L 720 405 L 720 520 L 720 635 L 750 635" fill="none" stroke="rgb(0, 0, 0)" stroke-miterlimit="10" pointer-events="none"/><path d="M 694 401 L 694 409 M 698 401 L 698 409" fill="none" stroke="rgb(0, 0, 0)" stroke-miterlimit="10" pointer-events="none"/><ellipse cx="738" cy="635" rx="3" ry="3" fill="#ffffff" stroke="rgb(0, 0, 0)" pointer-events="none"/><path d="M 750 631 L 742 635 L 750 639" fill="none" stroke="rgb(0, 0, 0)" stroke-miterlimit="10" pointer-events="none"/><path d="M 510 405 L 480 405 L 470 565 L 440 565" fill="none" stroke="rgb(0, 0, 0)" stroke-miterlimit="10" pointer-events="none"/><path d="M 506 409 L 506 401 M 502 409 L 502 401" fill="none" stroke="rgb(0, 0, 0)" stroke-miterlimit="10" pointer-events="none"/><ellipse cx="452" cy="565" rx="3" ry="3" fill="#ffffff" stroke="rgb(0, 0, 0)" pointer-events="none"/><path d="M 440 569 L 448 565 L 440 561" fill="none" stroke="rgb(0, 0, 0)" stroke-miterlimit="10" pointer-events="none"/><path d="M 244.5 535 L 230 535 L 210 470 L 180 470" fill="none" stroke="rgb(0, 0, 0)" stroke-miterlimit="10" pointer-events="none"/><ellipse cx="248" cy="535" rx="3" ry="3" fill="none" stroke="rgb(0, 0, 0)" pointer-events="none"/><path d="M 260 531 L 252 535 L 260 539 M 252 535 L 260 535" fill="none" stroke="rgb(0, 0, 0)" stroke-miterlimit="10" pointer-events="none"/><path d="M 184 466 L 184 474 M 188 466 L 188 474" fill="none" stroke="rgb(0, 0, 0)" stroke-miterlimit="10" pointer-events="none"/><path d="M 190 45 L 220 45 L 220 470 L 195.5 470" fill="none" stroke="rgb(0, 0, 0)" stroke-miterlimit="10" pointer-events="none"/><path d="M 194 41 L 194 49 M 198 41 L 198 49" fill="none" stroke="rgb(0, 0, 0)" stroke-miterlimit="10" pointer-events="none"/><ellipse cx="192" cy="470" rx="3" ry="3" fill="none" stroke="rgb(0, 0, 0)" pointer-events="none"/><path d="M 184 466 L 184 474 M 188.5 470 L 180 470" fill="none" stroke="rgb(0, 0, 0)" stroke-miterlimit="10" pointer-events="none"/><path d="M 190 45 L 220 45 L 290 165 L 320 165" fill="none" stroke="rgb(0, 0, 0)" stroke-miterlimit="10" pointer-events="none"/><path d="M 194 41 L 194 49 M 198 41 L 198 49" fill="none" stroke="rgb(0, 0, 0)" stroke-miterlimit="10" pointer-events="none"/><ellipse cx="308" cy="165" rx="3" ry="3" fill="#ffffff" stroke="rgb(0, 0, 0)" pointer-events="none"/><path d="M 316 169 L 316 161" fill="none" stroke="rgb(0, 0, 0)" stroke-miterlimit="10" pointer-events="none"/></g></svg>